<svg id="Layer_1" data-name="Layer 1" xmlns="http://www.w3.org/2000/svg" viewBox="0 0 964.67 574.79"><defs><style>.cls-1{fill:#939;}.cls-2{fill:#c39;}.cls-3{fill:#fff;}</style></defs><title>bb-logo</title><path class="cls-1" d="M84,50.55c3.9-.7,7.52-2.66,11.52-2.83a208.41,208.41,0,0,1,176.7,86.48,221.62,221.62,0,0,1,28.23,53,211.3,211.3,0,0,1,88.42-92A207.82,207.82,0,0,1,500.49,70.38C549.48,73,597,94.1,632.39,128c17.75,17.49,33.24,37.63,43.71,60.35A210.62,210.62,0,0,1,828.54,52.63a178.18,178.18,0,0,1,55.89-4.37c9.91,3.59,20,7.72,28.25,14.38,22.41,16.6,35.18,44.56,35.31,72.21a94,94,0,0,1-17.17,55.83,90.13,90.13,0,0,1,23.88,29.93c16.5,32.45,12.36,74.63-11.32,102.54,18.91,24.52,24.14,58.52,14.29,87.78-8.37,25.74-29,48.31-55.54,55.39-2.74,1.35-5.34,3.24-8.49,3.37-6.72.55-13.45,1.09-20.18,1.28-20.27-.83-40.72-2.61-60.13-8.87-28.24-8.4-54.36-23.24-76.75-42.31a211.53,211.53,0,0,1-51.11-66.53A210.32,210.32,0,0,1,530.76,488.92c-9.92,2.19-20.09,2.72-30.18,3.65-10.72,1.13-21.52.36-32.22-.54-38.15-2.86-74.84-17.9-105.47-40.56-14.3-11.22-28-23.46-38.9-38.09a205.85,205.85,0,0,1-33.16-60,210.1,210.1,0,0,1-63.43,76.36c-31,22.87-68.38,37.54-106.93,40q-6.94.51-13.88,1c-8.73.53-17.39-1.34-26.11-1-6.22.2-12.22-1.89-18-3.92C51,461.39,40.25,454.6,32.05,445.31,2.76,414.45-.5,362.78,24.19,328.24c-14-15-22-35-23.89-55.24a41.05,41.05,0,0,1-.1-9.07c-.67-15.2,3.6-30.36,10.73-43.71,6-12,15.25-22.24,26-30.27A95.12,95.12,0,0,1,21.1,132.9a101.65,101.65,0,0,1,8.8-35.71A89.91,89.91,0,0,1,57.57,63.06C65.55,57.41,74.3,52.5,84,50.55M79.34,85.7c-5.19,2.93-9.26,7.36-13.18,11.76C55.84,109.6,51.35,126.14,52.52,141.9c1.26,13.83,6.1,27.8,15.86,38A15.62,15.62,0,0,1,73,192.79c-.39,4.84-4,8.43-5.92,12.67S60.49,211.6,56.73,214C45,221.6,37.13,234,33.11,247.25c-2.12,7-2.06,14.36-1.93,21.59,1,15.43,7.09,31.06,18.92,41.41,3.71,3.66,9.07,5.66,11.61,10.43A15.52,15.52,0,0,1,59,339.35c-2.33,2.43-5.56,3.55-8.72,4.44-2.82,5.57-6.54,10.74-8.2,16.85a64.34,64.34,0,0,0,.38,43.12c3,9.23,8.42,17.88,16.14,23.91a42.9,42.9,0,0,0,20.89,11c6.33,0,12.63.55,18.93,1,5.87.55,11.72-.29,17.57-.61,40.5-2.17,79.67-19.91,109-47.73A181.83,181.83,0,0,0,276.34,304c-32.47,17.36-69,27.48-105.84,28.13-7.8-.37-14.4-7.58-14.19-15.36a15.42,15.42,0,0,1,14.2-15.38,291,291,0,0,0,30.89-3.33,210,210,0,0,0,77.54-31.71c.29-3.28.59-6.56.93-9.83-5.12-5.91-11.1-11-17.13-15.92-26-21.7-58-35.57-91.13-42.14a15.39,15.39,0,0,1-11.4-10.32A15.55,15.55,0,0,1,165.76,171a16.13,16.13,0,0,1,13.31-2.53c34.58,7,67.87,21.18,96.08,42.46-3.8-12.73-8.09-25.41-14.57-37.06a181,181,0,0,0-45.5-55.53A177.91,177.91,0,0,0,100.52,78.55C93.2,79.91,85.86,82,79.34,85.7m775.11-5.79C821.67,83,790,96.18,764.16,116.48a179.69,179.69,0,0,0-59.68,84.22c22.67-13.05,47.24-23.31,73-28.05,7.44-1.28,15.17,3.92,17,11.2,2.33,7.65-2.46,16.56-10.15,18.79-16.67,3.95-33.28,8.8-48.65,16.51-14.56,6.69-28,15.61-40.5,25.57.22,8.51,2.05,16.89,2.21,25.41a206.07,206.07,0,0,0,99.36,35.56,15.45,15.45,0,0,1,5.74,28.26c-3.49,2.37-7.87,2.72-11.94,2.19-31.14-2.88-61.54-12.57-89.1-27.26,6.64,24.27,19.08,46.64,34.65,66.29,27,32.42,65.47,55.3,107.18,62.24,15.58,2,31.41,3.57,47.07,1.42,8.09-3.88,16.59-7.41,23.13-13.8,22.62-21.83,24.06-61.14,3.69-84.92-3-5-8.67-8.31-9.86-14.31a15.42,15.42,0,0,1,4.89-15.18c17.22-14.39,24.41-38.92,19.83-60.6-2.72-12.76-9.29-24.92-19.3-33.41-4-3.94-9.33-6-13.92-9.14-7.84-5.64-9.25-18.56-1.85-25.15,16.52-14.56,23.25-38.48,18.64-59.77-2.88-13.22-9.6-26.07-20.6-34.29-4.82-4.28-10.79-7-16.81-9.09-7.92-1.05-15.9.09-23.81.74M480.76,101.17a175,175,0,0,0-87.48,27.36C361.86,148.2,337.14,178,323,212.26c-14.17,34.64-17.76,73.77-9,110.22,3.91,19.17,11.87,37.3,21.77,54.1,9.21,14.35,19.68,28.09,32.63,39.29,29.21,26.59,67.43,43.62,107,45.71,13.76,1.54,27.54-.19,41.23-1.61,42.18-6.6,81.46-29.42,108.56-62.35a181.53,181.53,0,0,0,41.08-102.78c-.29-7.37-2.06-14.62-2.17-22-.89-9,.24-18.06-.87-27a182.18,182.18,0,0,0-37.51-79.32c-11-13.29-23.57-25.44-38.13-34.78A175.21,175.21,0,0,0,480.76,101.17Z"/><path class="cls-2" d="M368.45,404.81A256,256,0,0,1,338.69,403c-10.32-1.22-20.89-2.89-31.44-5S286.2,393.4,276,390.54s-19.84-6-28.79-9.23a38.08,38.08,0,0,1-11.48-4.91c-4.09-2.66-6.17-7.24-6.17-13.6,0-23.71.61-48.28,1.82-73a692.68,692.68,0,0,1,7.43-73.21A442.56,442.56,0,0,1,255,148.21a231.08,231.08,0,0,1,28.28-58.62l.36-.53.53-.37c10.68-7.37,20.64-11.11,29.6-11.11,11.68,0,21.47,6.48,29.1,19.25l1.18,2-1.37,1.85a142.45,142.45,0,0,0-16.42,28.87,244,244,0,0,0-11.51,33.7,357.72,357.72,0,0,0-7.53,36.18c-1.91,12.31-3.45,24.5-4.58,36.23-.71,6.63-1.32,13.79-1.81,21.32s-1,15.18-1.39,23.1c-.42,7.74-.75,15.6-1,23.37s-.32,15.2-.32,22.29c0,1.14,0,2.69.1,4.59s.24,3.87.51,5.88a30.72,30.72,0,0,0,1.15,5.3,5.2,5.2,0,0,0,1,2,240.88,240.88,0,0,0,27,7,149.6,149.6,0,0,0,29.32,2.93,139,139,0,0,0,34.5-4.28,86.82,86.82,0,0,0,29.27-13.39,68.11,68.11,0,0,0,20.29-23.26c5.06-9.37,7.62-21,7.62-34.47,0-7.63-1.43-14-4.26-19a40.82,40.82,0,0,0-11.36-12.75,61.12,61.12,0,0,0-16.43-8.41c-6.39-2.17-13-4.17-19.69-5.93l-19.93-5.25a87.38,87.38,0,0,1-18.07-6.81,41.49,41.49,0,0,1-13.42-10.76c-3.63-4.53-5.47-10.41-5.47-17.48a53.19,53.19,0,0,1,.58-8.37,13.43,13.43,0,0,1,3.48-7.29,16.06,16.06,0,0,1,7.6-4.17,46.07,46.07,0,0,1,11.72-1.19c6.21,0,12,.26,17.16.77,4.91.49,10.31.73,16.05.73a125,125,0,0,0,36.17-4.89,90,90,0,0,0,27.24-13.09,58.82,58.82,0,0,0,17-18.92,46.85,46.85,0,0,0,5.89-22.87,23.66,23.66,0,0,0-4.32-13.8,44.21,44.21,0,0,0-12.83-11.9A100.74,100.74,0,0,0,445.92,77a189.75,189.75,0,0,0-25.67-7,264.66,264.66,0,0,0-29.4-4.23c-10.28-.92-20.85-1.38-31.41-1.38a354.19,354.19,0,0,0-39.78,2.23,246.51,246.51,0,0,0-36.34,6.76,143.8,143.8,0,0,0-29.5,11.29c-8.2,4.33-14.5,9.38-18.74,15-9.32,16.89-17.78,29.78-25.15,38.31-8.16,9.44-14.64,13.84-20.39,13.84-8.54,0-12.88-8.44-12.88-25.09,0-14.33,2.09-27.41,6.2-38.88a101,101,0,0,1,17.42-30.72,107.67,107.67,0,0,1,26.56-22.8,162.19,162.19,0,0,1,33.28-15.33,216.14,216.14,0,0,1,38-8.82,294.35,294.35,0,0,1,41-2.82,344.24,344.24,0,0,1,49.13,3.57A361.59,361.59,0,0,1,435.6,20.94a287.12,287.12,0,0,1,42.51,15.73A189.15,189.15,0,0,1,512.7,57.19c9.92,7.57,17.84,15.91,23.52,24.77A52.51,52.51,0,0,1,545,110.6a83,83,0,0,1-7.48,34c-5,11.14-12.86,21.32-23.42,30.26s-24,16.26-40.3,21.94a154.41,154.41,0,0,1-27.34,6.64,77.73,77.73,0,0,1,7.3,2.68,81,81,0,0,1,27.74,19,79.34,79.34,0,0,1,16.8,27.66,96.93,96.93,0,0,1,5.56,32.66,112.16,112.16,0,0,1-3.75,28.3,115.42,115.42,0,0,1-11.27,27.61,122.24,122.24,0,0,1-18.74,24.81,118.16,118.16,0,0,1-26.37,20.2,140.5,140.5,0,0,1-33.94,13.52A164,164,0,0,1,368.45,404.81Z"/><path class="cls-3" d="M339.09,10.76a339.23,339.23,0,0,1,48.64,3.54,356.49,356.49,0,0,1,46.92,10,282.42,282.42,0,0,1,42,15.53,184.86,184.86,0,0,1,34,20.14q14.46,11,22.71,23.89a48.9,48.9,0,0,1,8.25,26.78,79.18,79.18,0,0,1-7.18,32.57q-7.18,16.07-22.5,29t-39.21,21.32q-23.9,8.36-57.32,9,21.21,0,37.07,6.75A77.22,77.22,0,0,1,479,227.48a75.55,75.55,0,0,1,16.07,26.46,93,93,0,0,1,5.36,31.5,108.2,108.2,0,0,1-3.64,27.43,111.42,111.42,0,0,1-10.93,26.78,118.2,118.2,0,0,1-18.21,24.11A114.2,114.2,0,0,1,442,383.36a136.38,136.38,0,0,1-33.1,13.18,159.83,159.83,0,0,1-40.5,4.82,251.37,251.37,0,0,1-29.35-1.82q-15.43-1.82-31.18-4.93t-31-7.39q-15.22-4.29-28.71-9.21a34.59,34.59,0,0,1-10.61-4.5q-4.61-3-4.61-10.71,0-35.57,1.82-72.85a685.9,685.9,0,0,1,7.39-72.85,437.09,437.09,0,0,1,16.07-67.81,226.6,226.6,0,0,1,27.85-57.74Q301.38,81,313.81,81q15.64,0,26.14,17.57a145.2,145.2,0,0,0-16.82,29.57,246.33,246.33,0,0,0-11.68,34.18,359.42,359.42,0,0,0-7.61,36.53q-2.89,18.64-4.61,36.43-1.08,10.07-1.82,21.43T296,279.87q-.64,11.79-1,23.46t-.32,22.39q0,1.72.11,4.71t.54,6.21a34.05,34.05,0,0,0,1.29,5.89,7.67,7.67,0,0,0,2.57,4,242.25,242.25,0,0,0,28.07,7.28,152.34,152.34,0,0,0,30,3,141.75,141.75,0,0,0,35.35-4.39,89.85,89.85,0,0,0,30.43-13.93A71.2,71.2,0,0,0,444.4,314q8-14.89,8-36.1,0-12.42-4.71-20.68a44.06,44.06,0,0,0-12.32-13.82A64.25,64.25,0,0,0,418,234.56q-9.75-3.32-19.93-6l-19.93-5.25a83.51,83.51,0,0,1-17.36-6.54,37.88,37.88,0,0,1-12.32-9.86q-4.71-5.89-4.71-15.32a49.58,49.58,0,0,1,.54-7.82,10,10,0,0,1,2.57-5.46,12.67,12.67,0,0,1,6-3.21A43.27,43.27,0,0,1,363.73,174q9.21,0,16.82.75t16.39.75a127.83,127.83,0,0,0,37.18-5,93,93,0,0,0,28.28-13.61,62,62,0,0,0,18-20,50,50,0,0,0,6.32-24.53,27.25,27.25,0,0,0-4.93-15.75A47.4,47.4,0,0,0,468,83.71a103.7,103.7,0,0,0-20.89-10,192.25,192.25,0,0,0-26.14-7.18,266.91,266.91,0,0,0-29.78-4.29q-15.64-1.39-31.71-1.39a356,356,0,0,0-40.17,2.25A248.78,248.78,0,0,0,282.42,70a146.59,146.59,0,0,0-30.21,11.57q-13.18,7-20,16.18Q218.24,123,207.32,135.67t-17.78,12.64q-9.42,0-9.43-21.64,0-21,6-37.71a97.08,97.08,0,0,1,16.82-29.68,103.73,103.73,0,0,1,25.71-22.07,158,158,0,0,1,32.57-15,211.69,211.69,0,0,1,37.39-8.68,289.48,289.48,0,0,1,40.5-2.79m0-6.9a297.77,297.77,0,0,0-41.46,2.85,219.62,219.62,0,0,0-38.61,9,165.64,165.64,0,0,0-34,15.66,111.11,111.11,0,0,0-27.41,23.53,104.41,104.41,0,0,0-18,31.77c-4.25,11.84-6.4,25.32-6.4,40,0,8.25,1,14.46,2.93,19,3.62,8.31,9.95,9.55,13.39,9.55,6.83,0,14.14-4.78,23-15,7.6-8.8,15.93-21.45,25.44-38.67,3.93-5.14,9.8-9.8,17.45-13.84a140.4,140.4,0,0,1,28.79-11A243.06,243.06,0,0,1,320.05,70a350.72,350.72,0,0,1,39.39-2.2c10.45,0,20.92.46,31.1,1.37a261.18,261.18,0,0,1,29,4.17,186.27,186.27,0,0,1,25.2,6.92,97.31,97.31,0,0,1,19.5,9.28,40.8,40.8,0,0,1,11.84,10.95,20.31,20.31,0,0,1,3.71,11.84,42.85,42.85,0,0,1-5.46,21.2,55.4,55.4,0,0,1-16,17.8,86.55,86.55,0,0,1-26.2,12.57,121.58,121.58,0,0,1-35.17,4.74c-5.63,0-10.92-.24-15.71-.72-5.29-.52-11.18-.78-17.5-.78a49.34,49.34,0,0,0-12.62,1.31,19.45,19.45,0,0,0-9.2,5.12,16.82,16.82,0,0,0-4.38,9.13,55.85,55.85,0,0,0-.62,8.91c0,7.87,2.09,14.47,6.23,19.63a44.89,44.89,0,0,0,14.52,11.66A90.78,90.78,0,0,0,376.43,230l2.84.75,17.09,4.5c6.6,1.74,13.14,3.71,19.46,5.86a57.66,57.66,0,0,1,15.5,7.93,37.39,37.39,0,0,1,10.41,11.68c2.52,4.42,3.8,10.22,3.8,17.25,0,12.92-2.42,24-7.21,32.83a64.69,64.69,0,0,1-19.27,22.1,83.41,83.41,0,0,1-28.11,12.85,135.52,135.52,0,0,1-33.64,4.18A146.13,146.13,0,0,1,328.66,347a239.59,239.59,0,0,1-25.39-6.47l0-.11a27.33,27.33,0,0,1-1-4.71c-.26-1.9-.42-3.77-.48-5.55s-.1-3.37-.1-4.47c0-7.06.11-14.53.32-22.2s.54-15.57,1-23.27c.43-7.88.9-15.64,1.39-23.06s1.1-14.61,1.8-21.15V236c1.12-11.66,2.66-23.78,4.56-36a354.17,354.17,0,0,1,7.46-35.83,240.53,240.53,0,0,1,11.35-33.22,139,139,0,0,1,16-28.17l2.74-3.7-2.36-4c-8.3-13.89-19.09-20.93-32.06-20.93-9.67,0-20.29,3.94-31.56,11.72l-1.06.73-.72,1.06a234.54,234.54,0,0,0-28.71,59.49A446,446,0,0,0,235.43,216,696,696,0,0,0,228,289.61c-1.21,24.8-1.83,49.43-1.83,73.19,0,9.47,4.21,14.2,7.74,16.5a41.44,41.44,0,0,0,12.33,5.32c9,3.27,18.71,6.39,28.88,9.25s20.87,5.42,31.5,7.52,21.31,3.78,31.7,5a259.5,259.5,0,0,0,30.16,1.87,167.45,167.45,0,0,0,42.24-5,143.9,143.9,0,0,0,34.77-13.86,121.62,121.62,0,0,0,27.14-20.79,125.66,125.66,0,0,0,19.27-25.51,118.87,118.87,0,0,0,11.6-28.44,115.6,115.6,0,0,0,3.87-29.17,100.34,100.34,0,0,0-5.76-33.82,81.59,81.59,0,0,0-42.72-47A144.82,144.82,0,0,0,475,200c16.65-5.83,30.58-13.42,41.39-22.57,11-9.28,19.15-19.87,24.34-31.48a86.41,86.41,0,0,0,7.78-35.38,55.91,55.91,0,0,0-9.34-30.51c-5.9-9.2-14.09-17.83-24.33-25.65a192.6,192.6,0,0,0-35.23-20.91,290.64,290.64,0,0,0-43-15.92A365.06,365.06,0,0,0,388.72,7.46a347.72,347.72,0,0,0-49.63-3.61Z"/><path class="cls-2" d="M632.09,567.49a255.79,255.79,0,0,1-29.76-1.85c-10.31-1.22-20.89-2.89-31.44-5s-21-4.59-31.23-7.46-19.83-6-28.79-9.23a38.14,38.14,0,0,1-11.48-4.91c-4.09-2.66-6.17-7.24-6.17-13.6,0-23.68.62-48.25,1.83-73a691.58,691.58,0,0,1,7.43-73.21,442.55,442.55,0,0,1,16.2-68.35A231,231,0,0,1,547,252.27l.36-.53.53-.37c10.68-7.37,20.64-11.11,29.6-11.11,11.67,0,21.47,6.48,29.1,19.25l1.18,2-1.37,1.85a142.33,142.33,0,0,0-16.42,28.87,244.13,244.13,0,0,0-11.51,33.7,357.75,357.75,0,0,0-7.53,36.18c-1.91,12.31-3.45,24.49-4.58,36.23-.71,6.61-1.31,13.77-1.81,21.32s-1,15.3-1.39,23.1-.74,15.58-1,23.37c-.21,7.64-.32,15.14-.32,22.29,0,1.12,0,2.66.1,4.59s.24,3.86.51,5.88a30.82,30.82,0,0,0,1.15,5.3,5.22,5.22,0,0,0,1,2,241,241,0,0,0,27,7A149.58,149.58,0,0,0,620.95,516a139,139,0,0,0,34.5-4.29,86.8,86.8,0,0,0,29.27-13.39A68.1,68.1,0,0,0,705,475.08c5.06-9.37,7.62-21,7.62-34.47,0-7.63-1.43-14-4.26-19A40.8,40.8,0,0,0,697,408.9a61.06,61.06,0,0,0-16.43-8.41c-6.38-2.17-13-4.17-19.69-5.93L641,389.32a87.31,87.31,0,0,1-18.07-6.81,41.44,41.44,0,0,1-13.42-10.76c-3.63-4.53-5.47-10.41-5.47-17.47a52.4,52.4,0,0,1,.58-8.37,13.41,13.41,0,0,1,3.48-7.29,16,16,0,0,1,7.6-4.17,46.06,46.06,0,0,1,11.72-1.19c6.21,0,12,.26,17.16.77,4.9.49,10.3.73,16.05.73a125.05,125.05,0,0,0,36.18-4.89A90,90,0,0,0,724,316.78a58.81,58.81,0,0,0,17-18.92A46.83,46.83,0,0,0,746.91,275a23.67,23.67,0,0,0-4.32-13.8,44.2,44.2,0,0,0-12.83-11.9,100.72,100.72,0,0,0-20.2-9.62,189.63,189.63,0,0,0-25.67-7,264.83,264.83,0,0,0-29.4-4.23c-10.28-.92-20.85-1.38-31.41-1.38a354.16,354.16,0,0,0-39.78,2.23A246.47,246.47,0,0,0,547,236a143.93,143.93,0,0,0-29.5,11.29c-8.2,4.33-14.5,9.38-18.74,15-9.32,16.9-17.78,29.78-25.15,38.31-8.16,9.44-14.64,13.84-20.39,13.84-8.54,0-12.88-8.44-12.88-25.09,0-14.33,2.09-27.41,6.2-38.88a101,101,0,0,1,17.42-30.72,107.71,107.71,0,0,1,26.56-22.8,162.24,162.24,0,0,1,33.28-15.33,216.17,216.17,0,0,1,38-8.82,294.31,294.31,0,0,1,41-2.82,344.25,344.25,0,0,1,49.13,3.57,361.51,361.51,0,0,1,47.38,10.06,287.2,287.2,0,0,1,42.51,15.73,189.23,189.23,0,0,1,34.59,20.52c9.92,7.57,17.84,15.91,23.52,24.77a52.51,52.51,0,0,1,8.8,28.65,83,83,0,0,1-7.48,34c-5,11.14-12.86,21.32-23.42,30.26s-24,16.26-40.3,21.94a154.48,154.48,0,0,1-27.34,6.64,77.6,77.6,0,0,1,7.3,2.68,81,81,0,0,1,27.74,19A79.32,79.32,0,0,1,762,415.46a96.89,96.89,0,0,1,5.56,32.66,112.15,112.15,0,0,1-3.75,28.3A115.46,115.46,0,0,1,752.51,504a122.27,122.27,0,0,1-18.74,24.81A118.19,118.19,0,0,1,707.4,549a140.54,140.54,0,0,1-33.94,13.52A164,164,0,0,1,632.09,567.49Z"/><path class="cls-3" d="M602.74,173.43A339.25,339.25,0,0,1,651.38,177a356.54,356.54,0,0,1,46.92,10,282.42,282.42,0,0,1,42,15.53,184.87,184.87,0,0,1,34,20.14q14.46,11,22.71,23.89a48.9,48.9,0,0,1,8.25,26.78A79.18,79.18,0,0,1,798,305.85q-7.18,16.07-22.5,29T736.33,356.2q-23.9,8.36-57.32,9,21.21,0,37.07,6.75a77.21,77.21,0,0,1,26.57,18.21,75.55,75.55,0,0,1,16.07,26.46,93,93,0,0,1,5.36,31.5,108.2,108.2,0,0,1-3.64,27.43,111.42,111.42,0,0,1-10.93,26.78,118.2,118.2,0,0,1-18.21,24.11A114.2,114.2,0,0,1,705.69,546a136.4,136.4,0,0,1-33.1,13.18,159.83,159.83,0,0,1-40.5,4.82,251.33,251.33,0,0,1-29.35-1.82q-15.43-1.82-31.18-4.93t-31-7.39q-15.22-4.29-28.71-9.21a34.6,34.6,0,0,1-10.61-4.5q-4.61-3-4.61-10.71,0-35.57,1.82-72.85a685.45,685.45,0,0,1,7.39-72.85A437.08,437.08,0,0,1,522,312a226.55,226.55,0,0,1,27.85-57.74q15.21-10.5,27.64-10.5,15.64,0,26.14,17.57a145.2,145.2,0,0,0-16.82,29.57A246.32,246.32,0,0,0,575.1,325a359.37,359.37,0,0,0-7.6,36.53q-2.9,18.64-4.61,36.43-1.08,10.07-1.82,21.43t-1.39,23.14q-.64,11.79-1,23.46t-.32,22.39q0,1.72.1,4.71t.54,6.21a34.05,34.05,0,0,0,1.29,5.89,7.66,7.66,0,0,0,2.57,4A242.28,242.28,0,0,0,591,516.47a152.32,152.32,0,0,0,30,3,141.73,141.73,0,0,0,35.35-4.39,89.82,89.82,0,0,0,30.43-13.93A71.18,71.18,0,0,0,708,476.72q8-14.89,8-36.1,0-12.42-4.71-20.68A44,44,0,0,0,699,406.12a64.21,64.21,0,0,0-17.35-8.89q-9.75-3.32-19.93-6L641.84,386a83.5,83.5,0,0,1-17.35-6.54,37.85,37.85,0,0,1-12.32-9.86q-4.71-5.89-4.71-15.32a49.38,49.38,0,0,1,.54-7.82,10,10,0,0,1,2.57-5.46,12.66,12.66,0,0,1,6-3.21,43.26,43.26,0,0,1,10.82-1.07q9.21,0,16.82.75t16.39.75a127.84,127.84,0,0,0,37.18-5A93,93,0,0,0,726,319.56a62,62,0,0,0,18-20A50,50,0,0,0,750.37,275a27.25,27.25,0,0,0-4.93-15.75,47.4,47.4,0,0,0-13.82-12.86,103.72,103.72,0,0,0-20.89-10,192.18,192.18,0,0,0-26.14-7.18A266.84,266.84,0,0,0,654.8,225q-15.64-1.39-31.71-1.39a356,356,0,0,0-40.17,2.25,248.7,248.7,0,0,0-36.85,6.86,146.64,146.64,0,0,0-30.21,11.57q-13.17,7-20,16.18Q481.89,285.71,471,298.35T453.18,311q-9.42,0-9.43-21.64,0-21,6-37.71A97.11,97.11,0,0,1,466.57,222a103.79,103.79,0,0,1,25.71-22.07,158,158,0,0,1,32.57-15,211.72,211.72,0,0,1,37.39-8.68,289.5,289.5,0,0,1,40.5-2.79m0-6.9a297.8,297.8,0,0,0-41.46,2.85,219.64,219.64,0,0,0-38.61,9,165.69,165.69,0,0,0-34,15.66,111.17,111.17,0,0,0-27.41,23.53,104.44,104.44,0,0,0-18,31.77c-4.25,11.84-6.4,25.32-6.4,40,0,8.25,1,14.46,2.93,19,3.62,8.31,9.95,9.55,13.39,9.55,6.83,0,14.14-4.78,23-15,7.6-8.79,15.92-21.44,25.44-38.67,3.93-5.14,9.8-9.79,17.45-13.84a140.46,140.46,0,0,1,28.79-11,243,243,0,0,1,35.83-6.66,350.73,350.73,0,0,1,39.39-2.2c10.45,0,20.92.46,31.1,1.37a261.17,261.17,0,0,1,29,4.17,186.2,186.2,0,0,1,25.2,6.92,97.33,97.33,0,0,1,19.5,9.28,40.8,40.8,0,0,1,11.84,10.95A20.31,20.31,0,0,1,743.47,275a42.85,42.85,0,0,1-5.46,21.2A55.4,55.4,0,0,1,722,314a86.58,86.58,0,0,1-26.2,12.57,121.61,121.61,0,0,1-35.18,4.74c-5.63,0-10.92-.24-15.71-.72-5.29-.52-11.18-.78-17.5-.78a49.33,49.33,0,0,0-12.62,1.31,19.43,19.43,0,0,0-9.2,5.12,16.8,16.8,0,0,0-4.38,9.13,55.64,55.64,0,0,0-.62,8.91c0,7.87,2.09,14.47,6.23,19.63a44.86,44.86,0,0,0,14.52,11.66,90.75,90.75,0,0,0,18.78,7.09l1.72.45L660,397.9c6.6,1.74,13.15,3.71,19.46,5.86a57.63,57.63,0,0,1,15.5,7.93,37.38,37.38,0,0,1,10.41,11.68c2.52,4.42,3.8,10.22,3.8,17.25,0,12.92-2.42,24-7.21,32.83a64.67,64.67,0,0,1-19.27,22.1,83.38,83.38,0,0,1-28.11,12.85,135.5,135.5,0,0,1-33.64,4.18,146.12,146.12,0,0,1-28.64-2.87,239.59,239.59,0,0,1-25.38-6.46l0-.11a27.36,27.36,0,0,1-1-4.71c-.26-1.91-.42-3.78-.48-5.54s-.1-3.38-.1-4.47c0-7.12.11-14.59.32-22.2s.54-15.56,1-23.28.89-15.55,1.39-23.06,1.1-14.64,1.8-21.15v-.07c1.12-11.67,2.66-23.79,4.56-36a354.13,354.13,0,0,1,7.46-35.83,240.52,240.52,0,0,1,11.35-33.22,139,139,0,0,1,16-28.17l2.74-3.7-2.36-4c-8.3-13.89-19.09-20.93-32.06-20.93-9.67,0-20.29,3.94-31.56,11.72l-1.06.73-.72,1.06a234.49,234.49,0,0,0-28.71,59.49,446,446,0,0,0-16.33,68.88,695.58,695.58,0,0,0-7.47,73.58c-1.21,24.83-1.83,49.45-1.83,73.19,0,9.47,4.21,14.2,7.74,16.5a41.47,41.47,0,0,0,12.33,5.32c9,3.27,18.71,6.39,28.88,9.25s20.87,5.42,31.5,7.52,21.3,3.78,31.7,5a259.45,259.45,0,0,0,30.16,1.87,167.45,167.45,0,0,0,42.24-5A143.93,143.93,0,0,0,709.11,552a121.62,121.62,0,0,0,27.14-20.8,125.66,125.66,0,0,0,19.27-25.51,118.86,118.86,0,0,0,11.6-28.44A115.6,115.6,0,0,0,771,448.12a100.34,100.34,0,0,0-5.76-33.82,81.59,81.59,0,0,0-42.72-47,144.87,144.87,0,0,0,16.11-4.56c16.65-5.83,30.58-13.42,41.39-22.57,11-9.28,19.15-19.87,24.34-31.48a86.41,86.41,0,0,0,7.78-35.38,55.91,55.91,0,0,0-9.34-30.51c-5.9-9.2-14.09-17.83-24.33-25.65a192.61,192.61,0,0,0-35.23-20.91,290.64,290.64,0,0,0-43-15.92,365.1,365.1,0,0,0-47.83-10.16,347.74,347.74,0,0,0-49.63-3.61Z"/></svg>