<svg id="Layer_1" data-name="Layer 1" xmlns="http://www.w3.org/2000/svg" viewBox="0 0 100 100"><defs><style>.cls-1{fill:#404040;}</style></defs><title>pinterest</title><path class="cls-1" d="M100,50A50,50,0,1,1,50,0,50,50,0,0,1,100,50ZM47.84,63.24a11,11,0,0,0,7.3,2.37,16.56,16.56,0,0,0,10.4-3.81A21.31,21.31,0,0,0,72,52.27,32.36,32.36,0,0,0,73.79,43,19.38,19.38,0,0,0,71.2,31.78a21.13,21.13,0,0,0-13.55-9.93,27.58,27.58,0,0,0-10.54-.46,24.52,24.52,0,0,0-11.18,4.15c-6.4,4.53-9.89,10.64-9.76,18.61a16.87,16.87,0,0,0,1.67,7.21,10.56,10.56,0,0,0,5.46,5.33,1.26,1.26,0,0,0,1.91-.95c.22-.85.39-1.71.66-2.54a2.14,2.14,0,0,0-.51-2.27,8.67,8.67,0,0,1-1.9-3.66,14.24,14.24,0,0,1-.13-6.14,16,16,0,0,1,7.57-11.35,18.23,18.23,0,0,1,14.4-2,12.29,12.29,0,0,1,9.76,11.59,27.61,27.61,0,0,1-1.58,11.37A15.83,15.83,0,0,1,59.72,57a7.92,7.92,0,0,1-6.62,2.46A5.33,5.33,0,0,1,48.26,54a13.66,13.66,0,0,1,.61-3c.67-2.38,1.41-4.74,2.08-7.13a11.46,11.46,0,0,0,.5-4.74A5,5,0,0,0,49.94,36a5.11,5.11,0,0,0-5.53-.63,7.33,7.33,0,0,0-3.65,4.11,13.34,13.34,0,0,0,.11,9.82,1.25,1.25,0,0,1,.05.68c-1.31,5.6-2.6,11.2-4,16.79a34.61,34.61,0,0,0-1.14,8.64,51.38,51.38,0,0,0,.53,6.77c0,.25.11.47.4.53a.56.56,0,0,0,.6-.28c.76-1.06,1.56-2.09,2.27-3.17a29,29,0,0,0,4.07-8.48c.73-2.75,1.42-5.52,2.12-8.28l.26-1A20.09,20.09,0,0,0,47.84,63.24Z"/></svg>