<svg id="Layer_1" data-name="Layer 1" xmlns="http://www.w3.org/2000/svg" viewBox="0 0 100 100"><defs><style>.cls-1{fill:#c39;}.cls-2{fill:#fff;}</style></defs><title>pinterest-pink</title><circle class="cls-1" cx="50" cy="50" r="50"/><path class="cls-2" d="M46.07,61.44l-.26,1c-.71,2.76-1.39,5.53-2.12,8.28a29,29,0,0,1-4.07,8.48c-.72,1.08-1.51,2.12-2.27,3.17a.56.56,0,0,1-.6.28c-.28-.06-.36-.28-.4-.53a51.38,51.38,0,0,1-.53-6.77A34.61,34.61,0,0,1,37,66.73c1.36-5.59,2.65-11.19,4-16.79a1.25,1.25,0,0,0-.05-.68,13.34,13.34,0,0,1-.11-9.82,7.33,7.33,0,0,1,3.65-4.11,5.11,5.11,0,0,1,5.53.63,5,5,0,0,1,1.51,3.11,11.46,11.46,0,0,1-.5,4.74c-.66,2.38-1.41,4.74-2.08,7.13a13.66,13.66,0,0,0-.61,3,5.33,5.33,0,0,0,4.84,5.46A7.92,7.92,0,0,0,59.72,57a15.83,15.83,0,0,0,3.76-6.2,27.61,27.61,0,0,0,1.58-11.37A12.29,12.29,0,0,0,55.3,27.8a18.23,18.23,0,0,0-14.4,2,16,16,0,0,0-7.57,11.35,14.24,14.24,0,0,0,.13,6.14,8.67,8.67,0,0,0,1.9,3.66,2.14,2.14,0,0,1,.51,2.27c-.27.83-.44,1.69-.66,2.54a1.26,1.26,0,0,1-1.91.95,10.56,10.56,0,0,1-5.46-5.33,16.87,16.87,0,0,1-1.67-7.21c-.14-8,3.36-14.08,9.76-18.61A24.52,24.52,0,0,1,47.11,21.4a27.58,27.58,0,0,1,10.54.46A21.13,21.13,0,0,1,71.2,31.78,19.38,19.38,0,0,1,73.79,43,32.36,32.36,0,0,1,72,52.27a21.31,21.31,0,0,1-6.48,9.53,16.56,16.56,0,0,1-10.4,3.81,11,11,0,0,1-7.3-2.37A20.09,20.09,0,0,1,46.07,61.44Z"/></svg>