<svg id="Layer_1" data-name="Layer 1" xmlns="http://www.w3.org/2000/svg" viewBox="0 0 100 100"><defs><style>.cls-1{fill:#fff;}</style></defs><title>product-white</title><path class="cls-1" d="M7,28.89a5.17,5.17,0,0,0-2.72,1.49,6.8,6.8,0,0,0-1.93,5.38A6.94,6.94,0,0,0,4.13,40a1.73,1.73,0,0,1,.52,1.43A4.24,4.24,0,0,1,4,42.81a2.52,2.52,0,0,1-1.08.91A6.61,6.61,0,0,0,.12,47.89,7.16,7.16,0,0,0,2,54.37c.44.45,1.1.68,1.38,1.28a1.72,1.72,0,0,1-.33,2,2.1,2.1,0,0,1-1,.5A9.81,9.81,0,0,0,1.23,60,7.18,7.18,0,0,0,2.39,66.8a5.66,5.66,0,0,0,3,1.85c1.11,0,2.22.22,3.33.1.93-.06,1.86-.13,2.78-.28a19.59,19.59,0,0,0,9.9-5,20.12,20.12,0,0,0,5.79-9.78,26,26,0,0,1-11.72,3.12,1.71,1.71,0,0,1,0-3.41,31.93,31.93,0,0,0,3.42-.37,23.23,23.23,0,0,0,8.59-3.52c0-.36.06-.72.1-1.09a22.21,22.21,0,0,0-11.91-6.41,1.71,1.71,0,0,1-.62-3.15,1.94,1.94,0,0,1,1.51-.17,26.38,26.38,0,0,1,10.48,4.67A22.54,22.54,0,0,0,25.81,40a20.12,20.12,0,0,0-5.42-6.89A19.7,19.7,0,0,0,8.92,28.77,4.93,4.93,0,0,0,7,28.89m83.87,0a19.37,19.37,0,0,0-9,3.54,20,20,0,0,0-7.24,9.81,25.64,25.64,0,0,1,8.09-3.11,1.71,1.71,0,0,1,.59,3.37,23,23,0,0,0-9.71,4.62c0,.78.19,1.55.21,2.33,0,.21,0,.49.21.6a22.87,22.87,0,0,0,10.83,3.82,1.71,1.71,0,0,1,1.35,1.17,1.72,1.72,0,0,1-.85,2,3.11,3.11,0,0,1-1.8.1,26.57,26.57,0,0,1-9.26-3,20.76,20.76,0,0,0,4,7.53,22.3,22.3,0,0,0,2.51,2.47,19.75,19.75,0,0,0,9.1,4.22,19.46,19.46,0,0,0,5.33.17,12.92,12.92,0,0,0,1.94-1,6.14,6.14,0,0,0,2.12-2.78,7.3,7.3,0,0,0-.15-5.65A9.28,9.28,0,0,0,97.6,57a1.7,1.7,0,0,1-.43-1.83c.21-.62.82-.94,1.22-1.42a7.15,7.15,0,0,0,.71-8,6.14,6.14,0,0,0-2.73-2.59A1.86,1.86,0,0,1,96,40.25a7.08,7.08,0,0,0,1.58-8.11,6,6,0,0,0-3.74-3.34,15.84,15.84,0,0,0-2.91.14M49.84,31.25a19,19,0,0,0-6.32,1.32,19.83,19.83,0,0,0-9.84,8.35,20.29,20.29,0,0,0-2.69,13,20.92,20.92,0,0,0,1.67,5.74,20.49,20.49,0,0,0,3.17,4.92A20,20,0,0,0,46.37,70.8a21.57,21.57,0,0,0,3.66.44,20,20,0,0,0,3.11-.16,17.07,17.07,0,0,0,4.37-1A20,20,0,0,0,70.4,52.6a27,27,0,0,1-.28-4.09,5.82,5.82,0,0,0-.18-1.82,20.23,20.23,0,0,0-4.13-8.31,18.62,18.62,0,0,0-4.19-3.78A19.42,19.42,0,0,0,49.84,31.25Zm-39-.64a1.71,1.71,0,1,1-1.27,1.94A1.72,1.72,0,0,1,10.84,30.61Zm82,2.23a1.71,1.71,0,1,1-1.15,1.92A1.72,1.72,0,0,1,92.85,32.84ZM57.39,35a1.71,1.71,0,1,1-1.25,1.74A1.72,1.72,0,0,1,57.39,35Zm-13.3,3.44a1.71,1.71,0,1,1-1,2.15A1.72,1.72,0,0,1,44.08,38.47ZM5.52,43.91a1.72,1.72,0,0,1,2,1.25,2,2,0,0,1-1,2.19A1.72,1.72,0,0,1,4.4,46.8,1.9,1.9,0,0,1,5.52,43.91Zm50.2.22a1.71,1.71,0,1,1-1.15,2A1.72,1.72,0,0,1,55.73,44.12Zm24.26,1A1.71,1.71,0,1,1,78.89,47,1.72,1.72,0,0,1,80,45.11Zm-62,1.8a1.71,1.71,0,1,1-1.34,1.82A1.72,1.72,0,0,1,17.94,46.91Zm17,1.33a1.9,1.9,0,0,1,2.28,1.81,1.71,1.71,0,0,1-1.11,1.57,1.9,1.9,0,0,1-2.47-1.57A1.73,1.73,0,0,1,34.9,48.24Zm56.72.09A1.87,1.87,0,0,1,94,50.17a1.72,1.72,0,0,1-1.47,1.59,1.89,1.89,0,0,1-2.07-2.06A1.72,1.72,0,0,1,91.62,48.33ZM62.26,50.65a1.71,1.71,0,1,1-1,2.09A1.72,1.72,0,0,1,62.26,50.65Zm-15.72.93a1.71,1.71,0,1,1-1.23,1.81A1.72,1.72,0,0,1,46.53,51.58Zm-6.43,7a1.72,1.72,0,0,1,2,1.07,1.94,1.94,0,0,1-.7,2.23,1.72,1.72,0,0,1-2.27-.37A1.88,1.88,0,0,1,40.11,58.54Zm42.77.88a1.71,1.71,0,1,1-1.22,1.84A1.72,1.72,0,0,1,82.87,59.43ZM7.17,61.61a1.72,1.72,0,0,1,2.27,1.5A1.86,1.86,0,0,1,7.15,65a1.71,1.71,0,0,1-1.27-1.73A1.81,1.81,0,0,1,7.17,61.61Zm86.46.05a1.72,1.72,0,0,1,2.19,1.48,1.75,1.75,0,0,1-1.14,2,1.72,1.72,0,0,1-2.23-1.3A1.79,1.79,0,0,1,93.63,61.66Zm-36.8,2.09a1.71,1.71,0,1,1-1.09,1.91A1.72,1.72,0,0,1,56.83,63.76Z"/></svg>