<svg id="Layer_1" data-name="Layer 1" xmlns="http://www.w3.org/2000/svg" viewBox="0 0 500 100"><defs><style>.cls-1{fill:#fc0;}</style></defs><title>rating-5</title><polygon class="cls-1" points="50 9.58 63.13 36.19 92.5 40.46 71.25 61.17 76.27 90.42 50 76.61 23.73 90.42 28.75 61.17 7.5 40.46 36.87 36.19 50 9.58"/><polygon class="cls-1" points="150 9.58 163.13 36.19 192.5 40.46 171.25 61.17 176.27 90.42 150 76.61 123.73 90.42 128.75 61.17 107.5 40.46 136.87 36.19 150 9.58"/><polygon class="cls-1" points="250 9.58 263.13 36.19 292.5 40.46 271.25 61.17 276.27 90.42 250 76.61 223.73 90.42 228.75 61.17 207.5 40.46 236.87 36.19 250 9.58"/><polygon class="cls-1" points="350 9.58 363.13 36.19 392.5 40.46 371.25 61.17 376.27 90.42 350 76.61 323.73 90.42 328.75 61.17 307.5 40.46 336.87 36.19 350 9.58"/><polygon class="cls-1" points="450 9.58 463.13 36.19 492.5 40.46 471.25 61.17 476.27 90.42 450 76.61 423.73 90.42 428.75 61.17 407.5 40.46 436.87 36.19 450 9.58"/></svg>