<svg id="Layer_1" data-name="Layer 1" xmlns="http://www.w3.org/2000/svg" viewBox="0 0 485 100"><defs><style>.cls-1{fill:#fc0;}</style></defs><title>rating-4</title><polygon class="cls-1" points="42.5 9.58 55.63 36.19 85 40.46 63.75 61.17 68.77 90.42 42.5 76.61 16.23 90.42 21.25 61.17 0 40.46 29.37 36.19 42.5 9.58"/><polygon class="cls-1" points="142.5 9.58 155.63 36.19 185 40.46 163.75 61.17 168.77 90.42 142.5 76.61 116.23 90.42 121.25 61.17 100 40.46 129.37 36.19 142.5 9.58"/><polygon class="cls-1" points="242.5 9.58 255.63 36.19 285 40.46 263.75 61.17 268.77 90.42 242.5 76.61 216.23 90.42 221.25 61.17 200 40.46 229.37 36.19 242.5 9.58"/><polygon class="cls-1" points="342.5 9.58 355.63 36.19 385 40.46 363.75 61.17 368.77 90.42 342.5 76.61 316.23 90.42 321.25 61.17 300 40.46 329.37 36.19 342.5 9.58"/><path class="cls-1" d="M442.5,16.36l10.44,21.16.7,1.41,1.56.23,23.35,3.39L461.66,59l-1.13,1.1.27,1.55,4,23.26L443.9,74l-1.4-.73-1.4.73-20.89,11,4-23.26.27-1.55L423.34,59l-16.9-16.47,23.35-3.39,1.56-.23.7-1.41L442.5,16.36m0-6.78L429.37,36.19,400,40.46l21.25,20.71-5,29.25L442.5,76.61l26.27,13.81-5-29.25L485,40.46l-29.37-4.27L442.5,9.58Z"/></svg>